<svg id="Layer_1" data-name="Layer 1" xmlns="http://www.w3.org/2000/svg" viewBox="0 0 446.39 97.94"><defs><style>.cls-1{fill:#be1e2d;}.cls-2{fill:#f1f2f2;}</style></defs><title>speicher logo</title><rect class="cls-1" width="446.39" height="97.94" rx="12" ry="12"/><path class="cls-2" d="M57.33,95.51q-2.26-2.78-2.26-4.61,0-2.61,3.74-6.26a6.37,6.37,0,0,1,4.35-2.09q2.7,0,6.61,3.92l.44.43a14.18,14.18,0,0,0,1,1.13,14.68,14.68,0,0,0,2.7,1.87,7.71,7.71,0,0,0,3.92,1.17q8.09,0,8.09-6.61a3.91,3.91,0,0,0-2.22-3.35,16.28,16.28,0,0,0-5.52-2A50.4,50.4,0,0,1,63.94,74a14.41,14.41,0,0,1-5.52-5.79,19.2,19.2,0,0,1-2.22-9.53,18.29,18.29,0,0,1,5.7-13.35q5.7-5.7,15.53-5.7A31.77,31.77,0,0,1,87,41a18.31,18.31,0,0,1,6,2.74L94.65,45l.44.35q2.7,2.52,2.7,4.18,0,1.83-2.09,4.87-3,4.35-6.09,4.35a8.92,8.92,0,0,1-4.52-1.74,10,10,0,0,1-1-.87,9.74,9.74,0,0,0-1.35-1.09,7.9,7.9,0,0,0-2-.78,12.79,12.79,0,0,0-3.35-.39,6.66,6.66,0,0,0-4,1.35,4.16,4.16,0,0,0-1.87,3.52,4.66,4.66,0,0,0,2.22,4.09,13.69,13.69,0,0,0,5.52,2,65.28,65.28,0,0,1,7.22,1.61,45,45,0,0,1,7.22,2.65,12.76,12.76,0,0,1,5.52,5.44,19.09,19.09,0,0,1,2.22,9.61,20.93,20.93,0,0,1-2.26,9.87,17.37,17.37,0,0,1-5.87,6.66,28.32,28.32,0,0,1-7.44,3.48,26.93,26.93,0,0,1-7.66,1.13,29.23,29.23,0,0,1-7.74-1,22.61,22.61,0,0,1-6-2.44,31.05,31.05,0,0,1-4-2.91,13.89,13.89,0,0,1-2.39-2.52Z" transform="translate(-37.07 -25.07)"/><path class="cls-2" d="M154.16,53.57a23,23,0,0,1,2.26,10.27,22.72,22.72,0,0,1-2.26,10.22,20.28,20.28,0,0,1-5.79,7.26,28.15,28.15,0,0,1-7.44,4.13,22,22,0,0,1-7.57,1.44H122.49v9.83a25.28,25.28,0,0,1-.13,3,7,7,0,0,1-.83,2.31,3.82,3.82,0,0,1-2.35,1.83,15.22,15.22,0,0,1-4.44.52,13.47,13.47,0,0,1-3.74-.44,6.85,6.85,0,0,1-2.26-1,3.64,3.64,0,0,1-1.17-1.78,7.8,7.8,0,0,1-.44-2q0-.83,0-2.48V48.35a25.31,25.31,0,0,1,.13-3,7,7,0,0,1,.83-2.31,3.81,3.81,0,0,1,2.35-1.83,15.19,15.19,0,0,1,4.44-.52h18.62A21.59,21.59,0,0,1,141,42.13a28.43,28.43,0,0,1,7.4,4.13A20.21,20.21,0,0,1,154.16,53.57Zm-13,10.18a6.78,6.78,0,0,0-2.52-5.7,8.43,8.43,0,0,0-5.22-2H122.49v15.4h11a8.43,8.43,0,0,0,5.13-1.91A6.85,6.85,0,0,0,141.11,63.75Z" transform="translate(-37.07 -25.07)"/><path class="cls-2" d="M177.48,89.07h26.8a25.3,25.3,0,0,1,3,.13,7,7,0,0,1,2.31.83,3.82,3.82,0,0,1,1.83,2.35,15.2,15.2,0,0,1,.52,4.44,13.52,13.52,0,0,1-.44,3.74,6.9,6.9,0,0,1-1,2.26,3.64,3.64,0,0,1-1.78,1.17,7.81,7.81,0,0,1-2,.44q-.83,0-2.48,0H169.73A13.47,13.47,0,0,1,166,104a6.85,6.85,0,0,1-2.26-1,3.64,3.64,0,0,1-1.17-1.78,7.8,7.8,0,0,1-.44-2q0-.83,0-2.48V48.35q0-4.44,1.65-6T170,40.7h34.28a25.3,25.3,0,0,1,3,.13,7,7,0,0,1,2.31.83A3.82,3.82,0,0,1,211.41,44a15.2,15.2,0,0,1,.52,4.44,13.52,13.52,0,0,1-.44,3.74,6.9,6.9,0,0,1-1,2.26,3.64,3.64,0,0,1-1.78,1.17,7.79,7.79,0,0,1-2,.44q-.83,0-2.48,0H177.48v8.79H194.7a25.31,25.31,0,0,1,3,.13,7,7,0,0,1,2.31.83,3.82,3.82,0,0,1,1.83,2.35,15.2,15.2,0,0,1,.52,4.44,13.52,13.52,0,0,1-.44,3.74,6.91,6.91,0,0,1-1,2.26,3.65,3.65,0,0,1-1.83,1.17,8.34,8.34,0,0,1-2,.44q-.83,0-2.48,0H177.48Z" transform="translate(-37.07 -25.07)"/><path class="cls-2" d="M217.58,48.35a25.31,25.31,0,0,1,.13-3,7,7,0,0,1,.83-2.31,3.81,3.81,0,0,1,2.35-1.83,15.19,15.19,0,0,1,4.44-.52,13.53,13.53,0,0,1,3.74.44,6.91,6.91,0,0,1,2.26,1A3.64,3.64,0,0,1,232.5,44a7.86,7.86,0,0,1,.44,2q0,.83,0,2.48V96.81a25.14,25.14,0,0,1-.13,3,7,7,0,0,1-.83,2.26,3.82,3.82,0,0,1-2.35,1.83,15.21,15.21,0,0,1-4.44.52,13.47,13.47,0,0,1-3.74-.44,6.85,6.85,0,0,1-2.26-1,3.64,3.64,0,0,1-1.17-1.78,7.8,7.8,0,0,1-.44-2q0-.83,0-2.48Z" transform="translate(-37.07 -25.07)"/><path class="cls-2" d="M280.83,87l.52-.35q3-1.74,4.18-1.74,2.7,0,5.83,4.87a10.17,10.17,0,0,1,1.91,5,4.1,4.1,0,0,1-1.17,3,17,17,0,0,1-3.52,2.61q-.78.52-2.22,1.39a31.56,31.56,0,0,1-5.87,2.26,29.53,29.53,0,0,1-8.87,1.39,32.29,32.29,0,0,1-8-1.09,35.31,35.31,0,0,1-8.7-3.65,35.86,35.86,0,0,1-8-6.26,28.8,28.8,0,0,1-5.87-9.48,33.88,33.88,0,0,1-2.31-12.66A32,32,0,0,1,240.9,60a28.18,28.18,0,0,1,5.79-9.14,34,34,0,0,1,8-6.09,37.64,37.64,0,0,1,8.83-3.57,33.92,33.92,0,0,1,8.31-1.09,33.17,33.17,0,0,1,14.7,3.83l2.09,1.22a25.72,25.72,0,0,1,2.39,1.61,7.44,7.44,0,0,1,1.57,1.78,4.38,4.38,0,0,1,.74,2.44,8.18,8.18,0,0,1-1.83,4.7q-3.39,4.7-6.09,4.7-1.57,0-4.44-1.91-3.65-3-9.74-3a16.9,16.9,0,0,0-5.57,1,21.58,21.58,0,0,0-5.52,2.91,14.44,14.44,0,0,0-4.39,5.39A17.26,17.26,0,0,0,254,72.63a17.45,17.45,0,0,0,1.74,7.92A14.63,14.63,0,0,0,260.21,86a20.5,20.5,0,0,0,5.57,2.91,17.3,17.3,0,0,0,5.48,1,18.12,18.12,0,0,0,5.09-.7,13.22,13.22,0,0,0,3.44-1.39Z" transform="translate(-37.07 -25.07)"/><path class="cls-2" d="M345.21,40.7a13.54,13.54,0,0,1,3.74.44,6.91,6.91,0,0,1,2.26,1A3.64,3.64,0,0,1,352.39,44a7.85,7.85,0,0,1,.43,2q0,.83,0,2.48V96.72a25.25,25.25,0,0,1-.13,3,7,7,0,0,1-.83,2.31,3.82,3.82,0,0,1-2.35,1.83,15.23,15.23,0,0,1-4.44.52,13.47,13.47,0,0,1-3.74-.44,6.86,6.86,0,0,1-2.26-1,3.65,3.65,0,0,1-1.17-1.78,7.8,7.8,0,0,1-.43-2q0-.83,0-2.48V79H314.41V96.72a25,25,0,0,1-.13,3,7,7,0,0,1-.83,2.31,3.82,3.82,0,0,1-2.35,1.83,15.23,15.23,0,0,1-4.44.52,13.47,13.47,0,0,1-3.74-.44,6.85,6.85,0,0,1-2.26-1,3.64,3.64,0,0,1-1.17-1.78,7.8,7.8,0,0,1-.43-2q0-.83,0-2.48V48.35a25.29,25.29,0,0,1,.13-3A7,7,0,0,1,300,43a3.82,3.82,0,0,1,2.35-1.83,15.19,15.19,0,0,1,4.44-.52,13.53,13.53,0,0,1,3.74.44,6.91,6.91,0,0,1,2.26,1A3.64,3.64,0,0,1,313.93,44a7.9,7.9,0,0,1,.44,2q0,.83,0,2.48V66.19h23.05V48.35a25.29,25.29,0,0,1,.13-3,7,7,0,0,1,.83-2.31,3.82,3.82,0,0,1,2.35-1.83A15.19,15.19,0,0,1,345.21,40.7Z" transform="translate(-37.07 -25.07)"/><path class="cls-2" d="M375.22,89.07H402a25.32,25.32,0,0,1,3,.13,7,7,0,0,1,2.31.83,3.82,3.82,0,0,1,1.83,2.35,15.18,15.18,0,0,1,.52,4.44,13.54,13.54,0,0,1-.43,3.74,6.9,6.9,0,0,1-1,2.26,3.64,3.64,0,0,1-1.78,1.17,7.82,7.82,0,0,1-2,.44q-.83,0-2.48,0H367.48a13.47,13.47,0,0,1-3.74-.44,6.86,6.86,0,0,1-2.26-1,3.64,3.64,0,0,1-1.17-1.78,7.76,7.76,0,0,1-.44-2c0-.55,0-1.38,0-2.48V48.35q0-4.44,1.65-6t6.26-1.61H402a25.32,25.32,0,0,1,3,.13,7,7,0,0,1,2.31.83A3.82,3.82,0,0,1,409.15,44a15.19,15.19,0,0,1,.52,4.44,13.54,13.54,0,0,1-.43,3.74,6.9,6.9,0,0,1-1,2.26,3.64,3.64,0,0,1-1.78,1.17,7.8,7.8,0,0,1-2,.44q-.83,0-2.48,0H375.22v8.79h17.23a25.3,25.3,0,0,1,3,.13,7,7,0,0,1,2.31.83,3.82,3.82,0,0,1,1.83,2.35,15.22,15.22,0,0,1,.52,4.44,13.54,13.54,0,0,1-.43,3.74,6.9,6.9,0,0,1-1,2.26,3.65,3.65,0,0,1-1.83,1.17,8.34,8.34,0,0,1-2,.44q-.83,0-2.48,0H375.22Z" transform="translate(-37.07 -25.07)"/><path class="cls-2" d="M464.14,93.68a13.8,13.8,0,0,1,1.3,4.52q0,3.31-5.39,5.57a12.23,12.23,0,0,1-4.7,1.22,4.12,4.12,0,0,1-2.57-.83,5.58,5.58,0,0,1-1.57-1.7q-.48-.87-1.26-2.7-1.92-4.35-5.57-13l-2.7.17h-11v9.83a25,25,0,0,1-.13,3,7,7,0,0,1-.83,2.31,3.82,3.82,0,0,1-2.35,1.83,15.23,15.23,0,0,1-4.44.52,13.47,13.47,0,0,1-3.74-.44,6.86,6.86,0,0,1-2.26-1,3.64,3.64,0,0,1-1.17-1.78,7.77,7.77,0,0,1-.44-2c0-.55,0-1.38,0-2.48V48.35a25.33,25.33,0,0,1,.13-3,7,7,0,0,1,.83-2.31,3.82,3.82,0,0,1,2.35-1.83,15.19,15.19,0,0,1,4.44-.52h18.79a21.58,21.58,0,0,1,7.53,1.44,27.74,27.74,0,0,1,7.35,4.13,20.44,20.44,0,0,1,5.74,7.31,23,23,0,0,1,2.26,10.27A21.61,21.61,0,0,1,458.22,80Q460.13,84.63,464.14,93.68ZM430.73,71.49h11.14a8.33,8.33,0,0,0,5-1.91,6.85,6.85,0,0,0,2.52-5.83,6.78,6.78,0,0,0-2.52-5.7,8.43,8.43,0,0,0-5.22-2h-11Z" transform="translate(-37.07 -25.07)"/></svg>